<?xml version="1.0" encoding="UTF-8"?>
<svg xmlns="http://www.w3.org/2000/svg" xmlns:xlink="http://www.w3.org/1999/xlink" width="156px" height="56px" viewBox="0 0 156 56" version="1.1">
<g id="surface1">
<path style=" stroke:none;fill-rule:nonzero;fill:rgb(0%,0%,0%);fill-opacity:1;" d="M 0 28 L 0 56 L 156 56 L 156 0 L 0 0 Z M 33.25 17.546875 C 33.675781 17.738281 33.84375 17.972656 35.0625 20.074219 C 36.511719 22.601562 36.617188 22.945312 36.15625 23.691406 L 35.917969 24.085938 L 28.507812 24.085938 L 27.796875 22.863281 C 26.992188 21.5 26.898438 20.917969 27.335938 20.335938 C 27.464844 20.15625 28.402344 19.527344 29.410156 18.949219 C 32.5625 17.121094 32.433594 17.167969 33.25 17.546875 Z M 43.742188 20.953125 C 44.085938 21.285156 44.179688 21.984375 43.929688 22.351562 C 43.683594 22.757812 43.078125 22.898438 41.714844 22.898438 L 40.578125 22.898438 L 39.710938 24.761719 C 38.207031 28 37.128906 30.183594 36.902344 30.433594 C 36.5 30.882812 35.859375 31.285156 35.207031 31.511719 C 34.648438 31.703125 34.1875 31.738281 32.007812 31.738281 C 29.160156 31.738281 28.949219 31.679688 28.117188 30.835938 C 27.5 30.207031 27.382812 29.578125 27.382812 27.027344 L 27.382812 24.796875 L 37.316406 24.796875 L 37.496094 24.347656 C 37.589844 24.109375 38.027344 23.171875 38.453125 22.269531 L 39.238281 20.632812 L 41.371094 20.667969 C 43.339844 20.703125 43.515625 20.726562 43.742188 20.953125 Z M 55.050781 21.792969 C 55.679688 21.996094 57.019531 23.160156 57.019531 23.503906 C 57.019531 23.65625 55.84375 24.441406 55.609375 24.441406 C 55.558594 24.441406 55.371094 24.273438 55.167969 24.074219 C 54.742188 23.609375 54.207031 23.371094 53.582031 23.371094 C 52.609375 23.371094 52.039062 24.441406 52.667969 25.082031 C 52.808594 25.222656 53.332031 25.496094 53.816406 25.6875 C 55.808594 26.433594 56.699219 27.039062 57.125 27.929688 C 57.632812 28.972656 57.398438 30.160156 56.496094 31.027344 C 55.144531 32.355469 52.726562 32.460938 51.164062 31.261719 C 50.734375 30.941406 50.023438 29.96875 50.023438 29.71875 C 50.023438 29.648438 50.378906 29.398438 50.808594 29.175781 C 51.445312 28.84375 51.601562 28.808594 51.660156 28.949219 C 51.789062 29.339844 52.597656 29.992188 53.09375 30.136719 C 54.589844 30.539062 55.796875 29.398438 54.945312 28.378906 C 54.671875 28.046875 53.960938 27.691406 52.714844 27.242188 C 51.945312 26.957031 51.089844 26.363281 50.78125 25.886719 C 50.402344 25.332031 50.25 24.488281 50.390625 23.847656 C 50.808594 21.972656 52.859375 21.070312 55.050781 21.792969 Z M 108.476562 21.59375 C 109.355469 21.757812 110.433594 22.292969 111.085938 22.875 C 113.90625 25.378906 113.230469 29.957031 109.828125 31.570312 C 108.300781 32.292969 106.996094 32.269531 105.417969 31.5 C 103.628906 30.609375 102.539062 28.84375 102.539062 26.800781 C 102.539062 24.738281 103.6875 22.933594 105.574219 22.042969 C 106.6875 21.523438 107.457031 21.402344 108.476562 21.59375 Z M 76.199219 22.007812 C 78.191406 22.910156 79.304688 24.617188 79.304688 26.742188 C 79.304688 29.257812 77.761719 31.273438 75.378906 31.855469 C 71.492188 32.816406 68.019531 29.449219 68.917969 25.589844 C 69.15625 24.570312 69.429688 24.039062 70.117188 23.277344 C 71.207031 22.066406 72.453125 21.570312 74.265625 21.628906 C 75.273438 21.652344 75.570312 21.710938 76.199219 22.007812 Z M 60.929688 23.789062 L 60.929688 25.863281 L 65.078125 25.863281 L 65.078125 21.710938 L 67.210938 21.710938 L 67.210938 31.914062 L 65.078125 31.914062 L 65.078125 27.761719 L 60.929688 27.761719 L 60.929688 31.914062 L 58.796875 31.914062 L 58.796875 21.710938 L 60.929688 21.710938 Z M 86.238281 22.042969 C 87.542969 22.648438 88.195312 23.679688 88.195312 25.164062 C 88.195312 27.335938 86.785156 28.472656 84.09375 28.472656 L 82.980469 28.472656 L 82.980469 31.914062 L 80.964844 31.914062 L 80.964844 21.6875 L 83.3125 21.734375 C 85.457031 21.769531 85.691406 21.792969 86.238281 22.042969 Z M 93.28125 26.539062 L 95.699219 31.382812 L 98.070312 26.539062 C 99.90625 22.804688 100.488281 21.710938 100.664062 21.710938 C 100.867188 21.710938 100.878906 21.949219 100.878906 26.871094 C 100.878906 31.382812 100.855469 32.035156 100.699219 32.035156 C 100.546875 32.035156 100.523438 31.429688 100.511719 27.3125 L 100.511719 22.601562 L 98.140625 27.3125 C 96.847656 29.910156 95.746094 32.035156 95.6875 32.035156 C 95.640625 32.035156 94.535156 29.910156 93.234375 27.3125 L 90.863281 22.601562 L 90.824219 27.3125 C 90.800781 31.40625 90.777344 32.035156 90.625 32.035156 C 90.46875 32.035156 90.445312 31.371094 90.445312 26.871094 C 90.445312 22.03125 90.457031 21.710938 90.660156 21.710938 C 90.8125 21.710938 91.476562 22.933594 93.28125 26.539062 Z M 119.15625 21.949219 C 121.195312 22.71875 121.800781 25.414062 120.285156 26.980469 C 119.988281 27.289062 119.546875 27.574219 119.191406 27.703125 C 118.871094 27.820312 118.578125 27.941406 118.566406 27.953125 C 118.542969 27.964844 119.191406 28.867188 120.023438 29.957031 C 121.398438 31.75 121.707031 32.292969 121.183594 31.960938 C 121.078125 31.902344 120.34375 30.988281 119.546875 29.945312 L 118.101562 28.058594 L 116.492188 28.023438 L 114.867188 27.988281 L 114.867188 30.015625 C 114.867188 31.726562 114.84375 32.035156 114.6875 32.035156 C 114.535156 32.035156 114.511719 31.382812 114.511719 26.871094 L 114.511719 21.710938 L 116.527344 21.710938 C 118.246094 21.710938 118.625 21.746094 119.15625 21.949219 Z M 128.617188 21.890625 C 128.617188 22.042969 128.25 22.066406 126.007812 22.066406 L 123.402344 22.066406 L 123.402344 26.578125 L 125.476562 26.578125 C 127.46875 26.578125 127.550781 26.589844 127.550781 26.8125 C 127.550781 27.039062 127.46875 27.050781 125.476562 27.050781 L 123.402344 27.050781 L 123.402344 31.558594 L 126.070312 31.558594 C 128.652344 31.558594 128.734375 31.570312 128.734375 31.796875 C 128.734375 32.023438 128.652344 32.035156 125.832031 32.035156 L 122.925781 32.035156 L 122.925781 21.710938 L 125.773438 21.710938 C 128.226562 21.710938 128.617188 21.734375 128.617188 21.890625 Z M 30.429688 32.757812 C 32.03125 33.753906 31.210938 36.421875 29.304688 36.421875 C 27.867188 36.421875 26.957031 34.550781 27.796875 33.269531 C 28.296875 32.507812 29.613281 32.246094 30.429688 32.757812 Z M 36.996094 32.792969 C 37.863281 33.386719 38.074219 34.550781 37.472656 35.488281 C 36.402344 37.183594 34.019531 36.4375 33.996094 34.40625 C 33.996094 33.269531 34.757812 32.507812 35.90625 32.507812 C 36.414062 32.507812 36.675781 32.578125 36.996094 32.792969 Z M 36.996094 32.792969 "/>
<path style=" stroke:none;fill-rule:nonzero;fill:rgb(0%,0%,0%);fill-opacity:1;" d="M 106.390625 22.101562 C 105.085938 22.53125 103.710938 23.800781 103.238281 25 C 102.847656 25.972656 102.847656 27.65625 103.238281 28.628906 C 103.617188 29.601562 104.695312 30.730469 105.714844 31.226562 C 106.449219 31.59375 106.59375 31.617188 107.695312 31.617188 C 108.820312 31.617188 108.9375 31.59375 109.699219 31.214844 C 110.730469 30.679688 111.773438 29.589844 112.152344 28.628906 C 112.375 28.082031 112.425781 27.714844 112.425781 26.8125 C 112.425781 25.257812 112.140625 24.535156 111.085938 23.480469 C 109.996094 22.398438 109.210938 22.03125 107.882812 21.984375 C 107.269531 21.960938 106.675781 22.007812 106.390625 22.101562 Z M 106.390625 22.101562 "/>
<path style=" stroke:none;fill-rule:nonzero;fill:rgb(0%,0%,0%);fill-opacity:1;" d="M 73.257812 23.597656 C 71.835938 24.039062 71.019531 25.210938 71.007812 26.8125 C 71.007812 27.894531 71.324219 28.6875 72.015625 29.292969 C 72.652344 29.851562 73.128906 30.015625 74.050781 30.015625 C 75.058594 30.015625 75.640625 29.757812 76.304688 29.03125 C 77.882812 27.3125 77.148438 24.308594 74.988281 23.667969 C 74.359375 23.480469 73.734375 23.457031 73.257812 23.597656 Z M 73.257812 23.597656 "/>
<path style=" stroke:none;fill-rule:nonzero;fill:rgb(0%,0%,0%);fill-opacity:1;" d="M 82.980469 25.152344 L 82.980469 26.71875 L 84.105469 26.671875 C 85.421875 26.613281 85.777344 26.421875 86.0625 25.652344 C 86.214844 25.210938 86.214844 25.09375 86.0625 24.652344 C 85.777344 23.871094 85.410156 23.679688 84.09375 23.632812 L 82.980469 23.585938 Z M 82.980469 25.152344 "/>
<path style=" stroke:none;fill-rule:nonzero;fill:rgb(0%,0%,0%);fill-opacity:1;" d="M 114.867188 24.855469 L 114.867188 27.667969 L 116.738281 27.621094 C 118.921875 27.550781 119.371094 27.417969 120.070312 26.613281 C 121.007812 25.554688 120.949219 23.742188 119.941406 22.828125 C 119.265625 22.199219 118.957031 22.128906 116.859375 22.089844 L 114.867188 22.042969 Z M 114.867188 24.855469 "/>
</g>
</svg>
